<svg width="35" height="35" viewBox="0 0 35 35" fill="none" xmlns="http://www.w3.org/2000/svg">
<mask id="path-1-inside-1_1_19" fill="white">
<path fill-rule="evenodd" clip-rule="evenodd" d="M32.46 14.2286C31.1788 8.28807 26.1639 3.75885 19.9998 2.6976C19.9798 1.2044 18.7439 0 17.2222 0C15.6994 0 14.4628 1.20622 14.4446 2.701C8.3737 3.76861 3.70303 8.29546 2.51599 14.2307C1.10463 14.3606 0 15.5299 0 16.9531C0 18.3446 1.05593 19.4934 2.42207 19.6653C3.4436 25.8321 8.27525 30.739 14.4607 31.968C14.45 32.0658 14.4444 32.1651 14.4444 32.2656C14.4444 33.7758 15.6881 35 17.2222 35C18.7563 35 20 33.7758 20 32.2656C20 32.1986 19.9975 32.1322 19.9927 32.0664C26.4386 31.0252 31.5265 26.0126 32.5779 19.6653C33.9441 19.4934 35 18.3446 35 16.9531C35 15.5218 33.8828 14.3474 32.46 14.2286ZM31.4557 14.3242C30.2225 8.86464 25.5808 4.66927 19.8286 3.68212C19.4371 4.72515 18.4179 5.46875 17.2222 5.46875C16.028 5.46875 15.0099 4.72695 14.6173 3.68592C8.98297 4.67667 4.66082 8.84562 3.5194 14.3173C4.69346 14.6367 5.55556 15.6958 5.55556 16.9531C5.55556 18.243 4.64832 19.3242 3.42774 19.6122C4.42608 25.342 8.95849 29.8978 14.7557 31.0068C15.2184 30.1301 16.1493 29.5312 17.2222 29.5312C18.3308 29.5312 19.2878 30.1705 19.7333 31.0951C25.7738 30.1628 30.5448 25.5093 31.5723 19.6122C30.3517 19.3242 29.4444 18.243 29.4444 16.9531C29.4444 15.7047 30.2944 14.6517 31.4557 14.3242Z"/>
</mask>
<path fill-rule="evenodd" clip-rule="evenodd" d="M32.46 14.2286C31.1788 8.28807 26.1639 3.75885 19.9998 2.6976C19.9798 1.2044 18.7439 0 17.2222 0C15.6994 0 14.4628 1.20622 14.4446 2.701C8.3737 3.76861 3.70303 8.29546 2.51599 14.2307C1.10463 14.3606 0 15.5299 0 16.9531C0 18.3446 1.05593 19.4934 2.42207 19.6653C3.4436 25.8321 8.27525 30.739 14.4607 31.968C14.45 32.0658 14.4444 32.1651 14.4444 32.2656C14.4444 33.7758 15.6881 35 17.2222 35C18.7563 35 20 33.7758 20 32.2656C20 32.1986 19.9975 32.1322 19.9927 32.0664C26.4386 31.0252 31.5265 26.0126 32.5779 19.6653C33.9441 19.4934 35 18.3446 35 16.9531C35 15.5218 33.8828 14.3474 32.46 14.2286ZM31.4557 14.3242C30.2225 8.86464 25.5808 4.66927 19.8286 3.68212C19.4371 4.72515 18.4179 5.46875 17.2222 5.46875C16.028 5.46875 15.0099 4.72695 14.6173 3.68592C8.98297 4.67667 4.66082 8.84562 3.5194 14.3173C4.69346 14.6367 5.55556 15.6958 5.55556 16.9531C5.55556 18.243 4.64832 19.3242 3.42774 19.6122C4.42608 25.342 8.95849 29.8978 14.7557 31.0068C15.2184 30.1301 16.1493 29.5312 17.2222 29.5312C18.3308 29.5312 19.2878 30.1705 19.7333 31.0951C25.7738 30.1628 30.5448 25.5093 31.5723 19.6122C30.3517 19.3242 29.4444 18.243 29.4444 16.9531C29.4444 15.7047 30.2944 14.6517 31.4557 14.3242Z" fill="white"/>
<path d="M19.9998 2.6976L18.9998 2.71099L19.011 3.54208L19.8301 3.6831L19.9998 2.6976ZM32.46 14.2286L31.4825 14.4395L31.6387 15.1636L32.3769 15.2252L32.46 14.2286ZM14.4446 2.701L14.6178 3.68588L15.4345 3.54227L15.4446 2.71315L14.4446 2.701ZM2.51599 14.2307L2.60762 15.2265L3.35031 15.1582L3.49657 14.4268L2.51599 14.2307ZM2.42207 19.6653L3.40862 19.5019L3.28676 18.7662L2.54691 18.6731L2.42207 19.6653ZM14.4607 31.968L15.4547 32.0773L15.5549 31.1659L14.6556 30.9872L14.4607 31.968ZM19.9927 32.0664L19.8333 31.0792L18.9286 31.2254L18.9954 32.1394L19.9927 32.0664ZM32.5779 19.6653L32.4531 18.6731L31.7132 18.7662L31.5914 19.5019L32.5779 19.6653ZM19.8286 3.68212L19.9978 2.69653L19.183 2.5567L18.8924 3.33068L19.8286 3.68212ZM31.4557 14.3242L31.7271 15.2867L32.6401 15.0292L32.4311 14.1039L31.4557 14.3242ZM14.6173 3.68592L15.5529 3.33306L15.2605 2.55748L14.4441 2.70103L14.6173 3.68592ZM3.5194 14.3173L2.54047 14.1131L2.34816 15.035L3.2569 15.2822L3.5194 14.3173ZM3.42774 19.6122L3.19806 18.639L2.28081 18.8554L2.44258 19.7839L3.42774 19.6122ZM14.7557 31.0068L14.5678 31.989L15.2946 32.128L15.6401 31.4735L14.7557 31.0068ZM19.7333 31.0951L18.8325 31.5292L19.154 32.1963L19.8858 32.0834L19.7333 31.0951ZM31.5723 19.6122L32.5574 19.7839L32.7192 18.8554L31.8019 18.639L31.5723 19.6122ZM19.8301 3.6831C25.6262 4.681 30.2944 8.93058 31.4825 14.4395L33.4376 14.0178C32.0632 7.64557 26.7015 2.8367 20.1694 1.7121L19.8301 3.6831ZM17.2222 1C18.2107 1 18.9874 1.77857 18.9998 2.71099L20.9997 2.68421C20.9722 0.630221 19.2771 -1 17.2222 -1V1ZM15.4446 2.71315C15.4559 1.77974 16.233 1 17.2222 1V-1C15.1658 -1 13.4697 0.632703 13.4447 2.68885L15.4446 2.71315ZM3.49657 14.4268C4.60121 8.9036 8.94495 4.6835 14.6178 3.68588L14.2714 1.71611C7.80245 2.85372 2.80485 7.68732 1.53541 14.0346L3.49657 14.4268ZM1 16.9531C1 16.0643 1.69314 15.3107 2.60762 15.2265L2.42437 13.2349C0.516131 13.4105 -1 14.9955 -1 16.9531H1ZM2.54691 18.6731C1.66229 18.5618 1 17.8222 1 16.9531H-1C-1 18.8671 0.449574 20.425 2.29723 20.6575L2.54691 18.6731ZM14.6556 30.9872C8.8688 29.8374 4.36053 25.2484 3.40862 19.5019L1.43551 19.8287C2.52666 26.4158 7.6817 31.6406 14.2658 32.9489L14.6556 30.9872ZM15.4444 32.2656C15.4444 32.2017 15.448 32.1389 15.4547 32.0773L13.4667 31.8587C13.452 31.9927 13.4444 32.1285 13.4444 32.2656H15.4444ZM17.2222 34C16.2255 34 15.4444 33.2087 15.4444 32.2656H13.4444C13.4444 34.3429 15.1507 36 17.2222 36V34ZM19 32.2656C19 33.2087 18.219 34 17.2222 34V36C19.2937 36 21 34.3429 21 32.2656H19ZM18.9954 32.1394C18.9984 32.1809 19 32.223 19 32.2656H21C21 32.1742 20.9967 32.0835 20.9901 31.9935L18.9954 32.1394ZM31.5914 19.5019C30.6116 25.4168 25.864 30.105 19.8333 31.0792L20.1522 33.0536C27.0133 31.9453 32.4414 26.6084 33.5645 19.8287L31.5914 19.5019ZM34 16.9531C34 17.8222 33.3377 18.5618 32.4531 18.6731L32.7028 20.6575C34.5504 20.425 36 18.8671 36 16.9531H34ZM32.3769 15.2252C33.2989 15.3021 34 16.0592 34 16.9531H36C36 14.9844 34.4667 13.3926 32.5432 13.2321L32.3769 15.2252ZM19.6595 4.66771C25.0447 5.59189 29.3432 9.51036 30.4803 14.5445L32.4311 14.1039C31.1019 8.21893 26.1169 3.74665 19.9978 2.69653L19.6595 4.66771ZM17.2222 6.46875C18.8402 6.46875 20.2288 5.46146 20.7648 4.03356L18.8924 3.33068C18.6453 3.98883 17.9955 4.46875 17.2222 4.46875V6.46875ZM13.6816 4.03878C14.219 5.4639 15.6062 6.46875 17.2222 6.46875V4.46875C16.4498 4.46875 15.8007 3.99001 15.5529 3.33306L13.6816 4.03878ZM4.49833 14.5215C5.55464 9.45779 9.55167 5.59201 14.7904 4.67081L14.4441 2.70103C8.41426 3.76133 3.76699 8.23345 2.54047 14.1131L4.49833 14.5215ZM6.55556 16.9531C6.55556 15.2237 5.37084 13.7846 3.7819 13.3524L3.2569 15.2822C4.01609 15.4888 4.55556 16.1679 4.55556 16.9531H6.55556ZM3.65742 20.5855C5.30914 20.1957 6.55556 18.7273 6.55556 16.9531H4.55556C4.55556 17.7586 3.9875 18.4527 3.19806 18.639L3.65742 20.5855ZM14.9436 30.0246C9.54614 28.992 5.33835 24.7521 4.4129 19.4406L2.44258 19.7839C3.5138 25.932 8.37085 30.8035 14.5678 31.989L14.9436 30.0246ZM17.2222 28.5312C15.7698 28.5312 14.503 29.3431 13.8713 30.54L15.6401 31.4735C15.9337 30.9171 16.5288 30.5312 17.2222 30.5312V28.5312ZM20.6342 30.6609C20.0254 29.3977 18.7228 28.5312 17.2222 28.5312V30.5312C17.9388 30.5312 18.5501 30.9434 18.8325 31.5292L20.6342 30.6609ZM30.5871 19.4406C29.6346 24.9074 25.2051 29.2387 19.5808 30.1068L19.8858 32.0834C26.3425 31.0869 31.4549 26.1113 32.5574 19.7839L30.5871 19.4406ZM31.8019 18.639C31.0125 18.4527 30.4444 17.7586 30.4444 16.9531H28.4444C28.4444 18.7273 29.6909 20.1957 31.3426 20.5855L31.8019 18.639ZM30.4444 16.9531C30.4444 16.1734 30.9762 15.4984 31.7271 15.2867L31.1843 13.3617C29.6125 13.805 28.4444 15.236 28.4444 16.9531H30.4444Z" fill="black" mask="url(#path-1-inside-1_1_19)"/>
</svg>
